# xmcd
#
# Track frame offsets: 
#        150
#        20550
#        41052
#
# Disc length: 1011 seconds
#
# Revision: 0
# Processed by: cddbd v1.5.2PL0 Copyright (c) Steve Scherf et al.
# Submitted via: ExactAudioCopy v0.99pb5
#
DISCID=1f03f103
DTITLE=Amanda Marshall - Let It Rain (single)
DYEAR=1996
DGENRE=
TTITLE0=Let It Rain (album version)
TTITLE1=Birmingham (live acoustic version courtesy of Mix 96.5 KHMX, H
TTITLE1=ouston)
TTITLE2=Birmingham (live at The Spectrum, Montreal)
EXTD=
EXTT0=
EXTT1=
EXTT2=
PLAYORDER=
